<mxfile host="Electron" modified="2023-12-16T10:21:54.549Z" agent="Mozilla/5.0 (Windows NT 10.0; Win64; x64) AppleWebKit/537.36 (KHTML, like Gecko) draw.io/22.1.2 Chrome/114.0.5735.289 Electron/25.9.4 Safari/537.36" etag="a_y35ive3xf-2rs7hjK3" version="22.1.2" type="device">
  <diagram name="Страница — 1" id="xjbYhO8doR0Xn5XljVLI">
    <mxGraphModel dx="1265" dy="1530" grid="1" gridSize="10" guides="1" tooltips="1" connect="1" arrows="1" fold="1" page="0" pageScale="1" pageWidth="2339" pageHeight="3300" math="0" shadow="0">
      <root>
        <mxCell id="0" />
        <mxCell id="1" parent="0" />
        <mxCell id="cB_1jcFKDLnhwmuv0rob-42" value="thread1" style="shape=umlFrame;whiteSpace=wrap;html=1;pointerEvents=0;strokeColor=#6c8ebf;fillColor=#dae8fc;shadow=0;connectable=0;noLabel=0;allowArrows=0;editable=0;movable=1;" parent="1" vertex="1">
          <mxGeometry x="40" y="-720" width="1800" height="600" as="geometry" />
        </mxCell>
        <mxCell id="cB_1jcFKDLnhwmuv0rob-43" value="thread2" style="shape=umlFrame;whiteSpace=wrap;html=1;pointerEvents=0;fillColor=#d5e8d4;strokeColor=#82b366;connectable=0;" parent="1" vertex="1">
          <mxGeometry x="40" y="-80" width="1800" height="1560" as="geometry" />
        </mxCell>
        <mxCell id="cB_1jcFKDLnhwmuv0rob-38" value="n" style="endArrow=open;html=1;endSize=12;startArrow=diamondThin;startSize=14;startFill=1;edgeStyle=orthogonalEdgeStyle;align=left;verticalAlign=bottom;rounded=0;entryX=0.5;entryY=0;entryDx=0;entryDy=0;exitX=0.5;exitY=1;exitDx=0;exitDy=0;" parent="1" source="VW9j-UFVzLN6SaN8k9wt-29" target="iYAQBUWoqbOEuKNMkIJt-21" edge="1">
          <mxGeometry x="-0.5" relative="1" as="geometry">
            <mxPoint x="900" y="650" as="sourcePoint" />
            <mxPoint x="1620" y="1055" as="targetPoint" />
            <mxPoint as="offset" />
            <Array as="points" />
          </mxGeometry>
        </mxCell>
        <mxCell id="iYAQBUWoqbOEuKNMkIJt-16" value="&lt;p style=&quot;margin: 0px ; margin-top: 4px ; text-align: center&quot;&gt;&lt;/p&gt;&lt;span&gt;&lt;div style=&quot;text-align: center&quot;&gt;&lt;span&gt;«singleton»&lt;/span&gt;&lt;/div&gt;&lt;/span&gt;&lt;p style=&quot;margin: 0px ; margin-top: 4px ; text-align: center&quot;&gt;&lt;b&gt;GlobalEnvironment&lt;/b&gt;&lt;/p&gt;&lt;hr size=&quot;1&quot;&gt;&lt;p style=&quot;margin: 0px ; margin-left: 4px&quot;&gt;+ &lt;u&gt;instance(void) : GlobalContext*&lt;/u&gt;&lt;/p&gt;&lt;p style=&quot;margin: 0px ; margin-left: 4px&quot;&gt;&lt;span&gt;&lt;br&gt;&lt;/span&gt;&lt;/p&gt;&lt;p style=&quot;margin: 0px ; margin-left: 4px&quot;&gt;&lt;span&gt;+ register(const QObject* obj): void&lt;/span&gt;&lt;br&gt;&lt;/p&gt;&lt;p style=&quot;margin: 0px ; margin-left: 4px&quot;&gt;+ get(const QString&amp;amp; name): const QObject*&amp;nbsp;&lt;/p&gt;&lt;p style=&quot;margin: 0px 0px 0px 4px&quot;&gt;&lt;br&gt;&lt;/p&gt;" style="verticalAlign=top;align=left;overflow=fill;fontSize=12;fontFamily=Helvetica;html=1;" parent="1" vertex="1">
          <mxGeometry x="80" y="-480" width="280" height="120" as="geometry" />
        </mxCell>
        <mxCell id="iYAQBUWoqbOEuKNMkIJt-17" value="&lt;p style=&quot;margin: 0px ; margin-top: 4px ; text-align: center&quot;&gt;&lt;/p&gt;&lt;span&gt;&lt;div style=&quot;text-align: center&quot;&gt;&lt;span&gt;«singleton»&lt;/span&gt;&lt;/div&gt;&lt;/span&gt;&lt;p style=&quot;margin: 0px ; margin-top: 4px ; text-align: center&quot;&gt;&lt;b&gt;LogSystem&lt;/b&gt;&lt;/p&gt;&lt;hr size=&quot;1&quot;&gt;&lt;p style=&quot;margin: 0px ; margin-left: 4px&quot;&gt;+ &lt;u&gt;instance(void) : LogSystem*&lt;/u&gt;&lt;/p&gt;&lt;p style=&quot;margin: 0px ; margin-left: 4px&quot;&gt;&lt;span&gt;&lt;br&gt;&lt;/span&gt;&lt;/p&gt;&lt;p style=&quot;margin: 0px ; margin-left: 4px&quot;&gt;&lt;span&gt;+ generate(const QString&amp;amp;): void&amp;nbsp;&lt;/span&gt;&lt;br&gt;&lt;/p&gt;&lt;p style=&quot;margin: 0px ; margin-left: 4px&quot;&gt;+ clear(void): void&amp;nbsp;&lt;/p&gt;&lt;p style=&quot;margin: 0px 0px 0px 4px&quot;&gt;&lt;br&gt;&lt;/p&gt;" style="verticalAlign=top;align=left;overflow=fill;fontSize=12;fontFamily=Helvetica;html=1;" parent="1" vertex="1">
          <mxGeometry x="80" y="-680" width="280" height="120" as="geometry" />
        </mxCell>
        <mxCell id="iYAQBUWoqbOEuKNMkIJt-21" value="&lt;p style=&quot;margin: 0px ; margin-top: 4px ; text-align: center&quot;&gt;&lt;/p&gt;&lt;span&gt;&lt;div style=&quot;text-align: center&quot;&gt;&lt;span&gt;«interface»&lt;/span&gt;&lt;/div&gt;&lt;/span&gt;&lt;p style=&quot;margin: 0px ; margin-top: 4px ; text-align: center&quot;&gt;&lt;b&gt;AbstractCommand&lt;/b&gt;&lt;b&gt;&lt;br&gt;&lt;/b&gt;&lt;/p&gt;&lt;hr size=&quot;1&quot;&gt;&lt;p style=&quot;border-color: var(--border-color); text-align: center; margin: 0px 0px 0px 4px;&quot;&gt;«abstract»&lt;br style=&quot;border-color: var(--border-color);&quot;&gt;&lt;/p&gt;&lt;p style=&quot;margin: 0px ; margin-left: 4px&quot;&gt;+ process(const QJsonObject&amp;amp;) : ReturnStatus&lt;/p&gt;&lt;p style=&quot;margin: 0px ; margin-left: 4px&quot;&gt;+ generate(QJsonObject&amp;amp;) : void&lt;/p&gt;&lt;p style=&quot;margin: 0px ; margin-left: 4px&quot;&gt;&lt;span style=&quot;background-color: initial;&quot;&gt;+ reset(void) : void&lt;/span&gt;&lt;/p&gt;&lt;p style=&quot;border-color: var(--border-color); text-align: center; margin: 0px 0px 0px 4px;&quot;&gt;«signals»&lt;br style=&quot;border-color: var(--border-color);&quot;&gt;&lt;/p&gt;&lt;p style=&quot;border-color: var(--border-color); margin: 0px 0px 0px 4px;&quot;&gt;+ logging(const QString&amp;amp;) : void&lt;br&gt;&lt;/p&gt;" style="verticalAlign=top;align=left;overflow=fill;fontSize=12;fontFamily=Helvetica;html=1;" parent="1" vertex="1">
          <mxGeometry x="720" y="840" width="360" height="160" as="geometry" />
        </mxCell>
        <mxCell id="VW9j-UFVzLN6SaN8k9wt-18" style="edgeStyle=orthogonalEdgeStyle;rounded=0;orthogonalLoop=1;jettySize=auto;html=1;entryX=0.5;entryY=1;entryDx=0;entryDy=0;" edge="1" parent="1" source="iYAQBUWoqbOEuKNMkIJt-22" target="iYAQBUWoqbOEuKNMkIJt-21">
          <mxGeometry relative="1" as="geometry">
            <Array as="points">
              <mxPoint x="900" y="1100" />
            </Array>
          </mxGeometry>
        </mxCell>
        <mxCell id="iYAQBUWoqbOEuKNMkIJt-22" value="&lt;p style=&quot;margin: 0px ; margin-top: 4px ; text-align: center&quot;&gt;&lt;/p&gt;&lt;span&gt;&lt;div style=&quot;text-align: center&quot;&gt;&lt;b style=&quot;background-color: initial;&quot;&gt;ReleaseCommand&lt;/b&gt;&lt;br&gt;&lt;/div&gt;&lt;/span&gt;&lt;hr size=&quot;1&quot;&gt;&lt;p style=&quot;text-align: center; margin: 0px 0px 0px 4px;&quot;&gt;&lt;br&gt;&lt;/p&gt;" style="verticalAlign=top;align=left;overflow=fill;fontSize=12;fontFamily=Helvetica;html=1;" parent="1" vertex="1">
          <mxGeometry x="940" y="1080" width="200" height="40" as="geometry" />
        </mxCell>
        <mxCell id="VW9j-UFVzLN6SaN8k9wt-14" style="edgeStyle=orthogonalEdgeStyle;rounded=0;orthogonalLoop=1;jettySize=auto;html=1;entryX=0.5;entryY=1;entryDx=0;entryDy=0;" edge="1" parent="1" source="hqSYlJ_J1wfFKjAuanq_-1" target="iYAQBUWoqbOEuKNMkIJt-21">
          <mxGeometry relative="1" as="geometry">
            <Array as="points">
              <mxPoint x="540" y="1040" />
              <mxPoint x="900" y="1040" />
            </Array>
          </mxGeometry>
        </mxCell>
        <mxCell id="hqSYlJ_J1wfFKjAuanq_-1" value="&lt;p style=&quot;margin: 0px ; margin-top: 4px ; text-align: center&quot;&gt;&lt;/p&gt;&lt;span&gt;&lt;div style=&quot;text-align: center&quot;&gt;&lt;b style=&quot;background-color: initial;&quot;&gt;EchoCommand&lt;/b&gt;&lt;br&gt;&lt;/div&gt;&lt;/span&gt;&lt;hr size=&quot;1&quot;&gt;&lt;p style=&quot;text-align: center; margin: 0px 0px 0px 4px;&quot;&gt;&lt;br&gt;&lt;/p&gt;" style="verticalAlign=top;align=left;overflow=fill;fontSize=12;fontFamily=Helvetica;html=1;" parent="1" vertex="1">
          <mxGeometry x="460" y="1080" width="160" height="40" as="geometry" />
        </mxCell>
        <mxCell id="VW9j-UFVzLN6SaN8k9wt-20" style="edgeStyle=orthogonalEdgeStyle;rounded=0;orthogonalLoop=1;jettySize=auto;html=1;entryX=0.5;entryY=1;entryDx=0;entryDy=0;" edge="1" parent="1" source="hqSYlJ_J1wfFKjAuanq_-5" target="iYAQBUWoqbOEuKNMkIJt-21">
          <mxGeometry relative="1" as="geometry">
            <Array as="points">
              <mxPoint x="900" y="1260" />
            </Array>
          </mxGeometry>
        </mxCell>
        <mxCell id="hqSYlJ_J1wfFKjAuanq_-5" value="&lt;p style=&quot;margin: 0px ; margin-top: 4px ; text-align: center&quot;&gt;&lt;/p&gt;&lt;span&gt;&lt;div style=&quot;text-align: center&quot;&gt;&lt;b style=&quot;background-color: initial;&quot;&gt;RereleaseCommand&lt;/b&gt;&lt;br&gt;&lt;/div&gt;&lt;/span&gt;&lt;hr size=&quot;1&quot;&gt;&lt;p style=&quot;text-align: center; margin: 0px 0px 0px 4px;&quot;&gt;&lt;br&gt;&lt;/p&gt;" style="verticalAlign=top;align=left;overflow=fill;fontSize=12;fontFamily=Helvetica;html=1;" parent="1" vertex="1">
          <mxGeometry x="940" y="1240" width="200" height="40" as="geometry" />
        </mxCell>
        <mxCell id="VW9j-UFVzLN6SaN8k9wt-15" style="edgeStyle=orthogonalEdgeStyle;rounded=0;orthogonalLoop=1;jettySize=auto;html=1;entryX=0.5;entryY=1;entryDx=0;entryDy=0;" edge="1" parent="1" source="hqSYlJ_J1wfFKjAuanq_-9" target="iYAQBUWoqbOEuKNMkIJt-21">
          <mxGeometry relative="1" as="geometry">
            <Array as="points">
              <mxPoint x="900" y="1100" />
            </Array>
          </mxGeometry>
        </mxCell>
        <mxCell id="hqSYlJ_J1wfFKjAuanq_-9" value="&lt;p style=&quot;margin: 0px ; margin-top: 4px ; text-align: center&quot;&gt;&lt;/p&gt;&lt;span&gt;&lt;div style=&quot;text-align: center&quot;&gt;&lt;b style=&quot;background-color: initial;&quot;&gt;LogInCommand&lt;/b&gt;&lt;br&gt;&lt;/div&gt;&lt;/span&gt;&lt;hr size=&quot;1&quot;&gt;&lt;p style=&quot;text-align: center; margin: 0px 0px 0px 4px;&quot;&gt;&lt;br&gt;&lt;/p&gt;" style="verticalAlign=top;align=left;overflow=fill;fontSize=12;fontFamily=Helvetica;html=1;" parent="1" vertex="1">
          <mxGeometry x="700" y="1080" width="160" height="40" as="geometry" />
        </mxCell>
        <mxCell id="VW9j-UFVzLN6SaN8k9wt-16" style="edgeStyle=orthogonalEdgeStyle;rounded=0;orthogonalLoop=1;jettySize=auto;html=1;entryX=0.5;entryY=1;entryDx=0;entryDy=0;" edge="1" parent="1" source="hqSYlJ_J1wfFKjAuanq_-12" target="iYAQBUWoqbOEuKNMkIJt-21">
          <mxGeometry relative="1" as="geometry">
            <Array as="points">
              <mxPoint x="900" y="1180" />
            </Array>
          </mxGeometry>
        </mxCell>
        <mxCell id="hqSYlJ_J1wfFKjAuanq_-12" value="&lt;p style=&quot;margin: 0px ; margin-top: 4px ; text-align: center&quot;&gt;&lt;/p&gt;&lt;span&gt;&lt;div style=&quot;text-align: center&quot;&gt;&lt;b&gt;LogOutCommand&lt;/b&gt;&lt;/div&gt;&lt;/span&gt;&lt;hr size=&quot;1&quot;&gt;&lt;p style=&quot;text-align: center; margin: 0px 0px 0px 4px;&quot;&gt;&lt;br&gt;&lt;/p&gt;&lt;p style=&quot;border-color: var(--border-color); margin: 0px 0px 0px 4px;&quot;&gt;&lt;br style=&quot;border-color: var(--border-color);&quot;&gt;&lt;/p&gt;" style="verticalAlign=top;align=left;overflow=fill;fontSize=12;fontFamily=Helvetica;html=1;" parent="1" vertex="1">
          <mxGeometry x="700" y="1160" width="160" height="40" as="geometry" />
        </mxCell>
        <mxCell id="VW9j-UFVzLN6SaN8k9wt-17" style="edgeStyle=orthogonalEdgeStyle;rounded=0;orthogonalLoop=1;jettySize=auto;html=1;entryX=0.5;entryY=1;entryDx=0;entryDy=0;" edge="1" parent="1" source="hqSYlJ_J1wfFKjAuanq_-13" target="iYAQBUWoqbOEuKNMkIJt-21">
          <mxGeometry relative="1" as="geometry">
            <Array as="points">
              <mxPoint x="900" y="1260" />
            </Array>
          </mxGeometry>
        </mxCell>
        <mxCell id="hqSYlJ_J1wfFKjAuanq_-13" value="&lt;p style=&quot;margin: 0px ; margin-top: 4px ; text-align: center&quot;&gt;&lt;/p&gt;&lt;span&gt;&lt;div style=&quot;text-align: center&quot;&gt;&lt;b&gt;UpdateCommand&lt;/b&gt;&lt;/div&gt;&lt;/span&gt;&lt;hr size=&quot;1&quot;&gt;&lt;p style=&quot;text-align: center; margin: 0px 0px 0px 4px;&quot;&gt;&lt;br&gt;&lt;/p&gt;" style="verticalAlign=top;align=left;overflow=fill;fontSize=12;fontFamily=Helvetica;html=1;" parent="1" vertex="1">
          <mxGeometry x="700" y="1240" width="160" height="40" as="geometry" />
        </mxCell>
        <mxCell id="VW9j-UFVzLN6SaN8k9wt-19" style="edgeStyle=orthogonalEdgeStyle;rounded=0;orthogonalLoop=1;jettySize=auto;html=1;entryX=0.5;entryY=1;entryDx=0;entryDy=0;" edge="1" parent="1" source="hqSYlJ_J1wfFKjAuanq_-16" target="iYAQBUWoqbOEuKNMkIJt-21">
          <mxGeometry relative="1" as="geometry">
            <Array as="points">
              <mxPoint x="900" y="1180" />
            </Array>
          </mxGeometry>
        </mxCell>
        <mxCell id="hqSYlJ_J1wfFKjAuanq_-16" value="&lt;p style=&quot;margin: 0px ; margin-top: 4px ; text-align: center&quot;&gt;&lt;/p&gt;&lt;span&gt;&lt;div style=&quot;text-align: center&quot;&gt;&lt;b style=&quot;border-color: var(--border-color); background-color: initial;&quot;&gt;ReleaseConfirmCommand&lt;/b&gt;&lt;br&gt;&lt;/div&gt;&lt;/span&gt;&lt;hr size=&quot;1&quot;&gt;&lt;p style=&quot;text-align: center; margin: 0px 0px 0px 4px;&quot;&gt;&lt;br&gt;&lt;/p&gt;" style="verticalAlign=top;align=left;overflow=fill;fontSize=12;fontFamily=Helvetica;html=1;" parent="1" vertex="1">
          <mxGeometry x="940" y="1160" width="200" height="40" as="geometry" />
        </mxCell>
        <mxCell id="VW9j-UFVzLN6SaN8k9wt-21" style="edgeStyle=orthogonalEdgeStyle;rounded=0;orthogonalLoop=1;jettySize=auto;html=1;entryX=0.5;entryY=1;entryDx=0;entryDy=0;" edge="1" parent="1" source="hqSYlJ_J1wfFKjAuanq_-17" target="iYAQBUWoqbOEuKNMkIJt-21">
          <mxGeometry relative="1" as="geometry">
            <Array as="points">
              <mxPoint x="900" y="1340" />
            </Array>
          </mxGeometry>
        </mxCell>
        <mxCell id="hqSYlJ_J1wfFKjAuanq_-17" value="&lt;p style=&quot;margin: 0px ; margin-top: 4px ; text-align: center&quot;&gt;&lt;/p&gt;&lt;span&gt;&lt;div style=&quot;text-align: center&quot;&gt;&lt;b style=&quot;border-color: var(--border-color); background-color: initial;&quot;&gt;RereleaseConfirmCommand&lt;/b&gt;&lt;br&gt;&lt;/div&gt;&lt;/span&gt;&lt;hr size=&quot;1&quot;&gt;&lt;p style=&quot;text-align: center; margin: 0px 0px 0px 4px;&quot;&gt;&lt;br&gt;&lt;/p&gt;&lt;p style=&quot;border-color: var(--border-color); margin: 0px 0px 0px 4px;&quot;&gt;&lt;br style=&quot;border-color: var(--border-color);&quot;&gt;&lt;/p&gt;" style="verticalAlign=top;align=left;overflow=fill;fontSize=12;fontFamily=Helvetica;html=1;" parent="1" vertex="1">
          <mxGeometry x="940" y="1320" width="200" height="40" as="geometry" />
        </mxCell>
        <mxCell id="VW9j-UFVzLN6SaN8k9wt-22" style="edgeStyle=orthogonalEdgeStyle;rounded=0;orthogonalLoop=1;jettySize=auto;html=1;" edge="1" parent="1" source="hqSYlJ_J1wfFKjAuanq_-22" target="iYAQBUWoqbOEuKNMkIJt-21">
          <mxGeometry relative="1" as="geometry">
            <mxPoint x="900" y="1000" as="targetPoint" />
            <Array as="points">
              <mxPoint x="900" y="1420" />
            </Array>
          </mxGeometry>
        </mxCell>
        <mxCell id="hqSYlJ_J1wfFKjAuanq_-22" value="&lt;p style=&quot;margin: 0px ; margin-top: 4px ; text-align: center&quot;&gt;&lt;/p&gt;&lt;span&gt;&lt;div style=&quot;text-align: center&quot;&gt;&lt;b style=&quot;border-color: var(--border-color); background-color: initial;&quot;&gt;RollbackCommand&lt;/b&gt;&lt;br&gt;&lt;/div&gt;&lt;/span&gt;&lt;hr size=&quot;1&quot;&gt;&lt;p style=&quot;text-align: center; margin: 0px 0px 0px 4px;&quot;&gt;&lt;br&gt;&lt;/p&gt;" style="verticalAlign=top;align=left;overflow=fill;fontSize=12;fontFamily=Helvetica;html=1;" parent="1" vertex="1">
          <mxGeometry x="940" y="1400" width="200" height="40" as="geometry" />
        </mxCell>
        <mxCell id="VW9j-UFVzLN6SaN8k9wt-23" style="edgeStyle=orthogonalEdgeStyle;rounded=0;orthogonalLoop=1;jettySize=auto;html=1;entryX=0.5;entryY=1;entryDx=0;entryDy=0;" edge="1" parent="1" source="hqSYlJ_J1wfFKjAuanq_-37" target="iYAQBUWoqbOEuKNMkIJt-21">
          <mxGeometry relative="1" as="geometry">
            <Array as="points">
              <mxPoint x="1180" y="1100" />
              <mxPoint x="1180" y="1040" />
              <mxPoint x="900" y="1040" />
            </Array>
          </mxGeometry>
        </mxCell>
        <mxCell id="hqSYlJ_J1wfFKjAuanq_-37" value="&lt;p style=&quot;margin: 0px ; margin-top: 4px ; text-align: center&quot;&gt;&lt;/p&gt;&lt;span&gt;&lt;div style=&quot;text-align: center&quot;&gt;&lt;b style=&quot;border-color: var(--border-color); background-color: initial;&quot;&gt;BoxStickerPrintCommand&lt;/b&gt;&lt;br&gt;&lt;/div&gt;&lt;/span&gt;&lt;hr size=&quot;1&quot;&gt;&lt;p style=&quot;text-align: center; margin: 0px 0px 0px 4px;&quot;&gt;&lt;br&gt;&lt;/p&gt;" style="verticalAlign=top;align=left;overflow=fill;fontSize=12;fontFamily=Helvetica;html=1;" parent="1" vertex="1">
          <mxGeometry x="1220" y="1080" width="200" height="40" as="geometry" />
        </mxCell>
        <mxCell id="VW9j-UFVzLN6SaN8k9wt-24" style="edgeStyle=orthogonalEdgeStyle;rounded=0;orthogonalLoop=1;jettySize=auto;html=1;entryX=0.5;entryY=1;entryDx=0;entryDy=0;" edge="1" parent="1" source="hqSYlJ_J1wfFKjAuanq_-52" target="iYAQBUWoqbOEuKNMkIJt-21">
          <mxGeometry relative="1" as="geometry">
            <Array as="points">
              <mxPoint x="1180" y="1180" />
              <mxPoint x="1180" y="1040" />
              <mxPoint x="900" y="1040" />
            </Array>
          </mxGeometry>
        </mxCell>
        <mxCell id="hqSYlJ_J1wfFKjAuanq_-52" value="&lt;p style=&quot;margin: 0px ; margin-top: 4px ; text-align: center&quot;&gt;&lt;/p&gt;&lt;span&gt;&lt;div style=&quot;text-align: center&quot;&gt;&lt;b style=&quot;border-color: var(--border-color); background-color: initial;&quot;&gt;LastBoxStickerPrintCommand&lt;/b&gt;&lt;br&gt;&lt;/div&gt;&lt;/span&gt;&lt;hr size=&quot;1&quot;&gt;&lt;p style=&quot;text-align: center; margin: 0px 0px 0px 4px;&quot;&gt;&lt;br&gt;&lt;/p&gt;" style="verticalAlign=top;align=left;overflow=fill;fontSize=12;fontFamily=Helvetica;html=1;" parent="1" vertex="1">
          <mxGeometry x="1220" y="1160" width="200" height="40" as="geometry" />
        </mxCell>
        <mxCell id="VW9j-UFVzLN6SaN8k9wt-25" style="edgeStyle=orthogonalEdgeStyle;rounded=0;orthogonalLoop=1;jettySize=auto;html=1;entryX=0.5;entryY=1;entryDx=0;entryDy=0;" edge="1" parent="1" source="hqSYlJ_J1wfFKjAuanq_-53" target="iYAQBUWoqbOEuKNMkIJt-21">
          <mxGeometry relative="1" as="geometry">
            <Array as="points">
              <mxPoint x="1180" y="1260" />
              <mxPoint x="1180" y="1040" />
              <mxPoint x="900" y="1040" />
            </Array>
          </mxGeometry>
        </mxCell>
        <mxCell id="hqSYlJ_J1wfFKjAuanq_-53" value="&lt;p style=&quot;margin: 0px ; margin-top: 4px ; text-align: center&quot;&gt;&lt;/p&gt;&lt;span&gt;&lt;div style=&quot;text-align: center&quot;&gt;&lt;b style=&quot;border-color: var(--border-color); background-color: initial;&quot;&gt;PalletStickerPrintCommand&lt;/b&gt;&lt;br&gt;&lt;/div&gt;&lt;/span&gt;&lt;hr size=&quot;1&quot;&gt;&lt;p style=&quot;text-align: center; margin: 0px 0px 0px 4px;&quot;&gt;&lt;br&gt;&lt;/p&gt;" style="verticalAlign=top;align=left;overflow=fill;fontSize=12;fontFamily=Helvetica;html=1;" parent="1" vertex="1">
          <mxGeometry x="1220" y="1240" width="200" height="40" as="geometry" />
        </mxCell>
        <mxCell id="VW9j-UFVzLN6SaN8k9wt-26" style="edgeStyle=orthogonalEdgeStyle;rounded=0;orthogonalLoop=1;jettySize=auto;html=1;entryX=0.5;entryY=1;entryDx=0;entryDy=0;" edge="1" parent="1" source="hqSYlJ_J1wfFKjAuanq_-54" target="iYAQBUWoqbOEuKNMkIJt-21">
          <mxGeometry relative="1" as="geometry">
            <Array as="points">
              <mxPoint x="1180" y="1340" />
              <mxPoint x="1180" y="1040" />
              <mxPoint x="900" y="1040" />
            </Array>
          </mxGeometry>
        </mxCell>
        <mxCell id="hqSYlJ_J1wfFKjAuanq_-54" value="&lt;p style=&quot;margin: 0px ; margin-top: 4px ; text-align: center&quot;&gt;&lt;/p&gt;&lt;span&gt;&lt;div style=&quot;text-align: center&quot;&gt;&lt;b style=&quot;border-color: var(--border-color); background-color: initial;&quot;&gt;LastPalletStickerPrintCommand&lt;/b&gt;&lt;br&gt;&lt;/div&gt;&lt;/span&gt;&lt;hr size=&quot;1&quot;&gt;&lt;p style=&quot;text-align: center; margin: 0px 0px 0px 4px;&quot;&gt;&lt;br&gt;&lt;/p&gt;" style="verticalAlign=top;align=left;overflow=fill;fontSize=12;fontFamily=Helvetica;html=1;" parent="1" vertex="1">
          <mxGeometry x="1220" y="1320" width="200" height="40" as="geometry" />
        </mxCell>
        <mxCell id="qubvDsR0c41vemm8rrU8-2" value="Unused" style="shape=umlFrame;whiteSpace=wrap;html=1;pointerEvents=0;fillColor=#f5f5f5;fontColor=#333333;strokeColor=#666666;" parent="1" vertex="1">
          <mxGeometry x="2670" y="1110" width="950" height="460" as="geometry" />
        </mxCell>
        <mxCell id="4Lav3sHIOP2TQWs1WB2x-2" value="&lt;p style=&quot;margin: 0px ; margin-top: 4px ; text-align: center&quot;&gt;«interface»&lt;br&gt;&lt;/p&gt;&lt;p style=&quot;margin: 0px ; margin-top: 4px ; text-align: center&quot;&gt;&lt;b&gt;AbstractGui&lt;/b&gt;&lt;b&gt;&lt;br&gt;&lt;/b&gt;&lt;/p&gt;&lt;hr size=&quot;1&quot;&gt;&lt;p style=&quot;text-align: center ; margin: 0px 0px 0px 4px&quot;&gt;«abstract»&lt;br&gt;&lt;/p&gt;&lt;p style=&quot;margin: 0px ; margin-left: 4px&quot;&gt;&lt;span&gt;+ create(void) : void&lt;/span&gt;&lt;br&gt;&lt;/p&gt;&lt;p style=&quot;margin: 0px ; margin-left: 4px&quot;&gt;&lt;span&gt;+ update(void) : void&lt;/span&gt;&lt;/p&gt;" style="verticalAlign=top;align=left;overflow=fill;fontSize=12;fontFamily=Helvetica;html=1;" parent="1" vertex="1">
          <mxGeometry x="440" y="-680" width="200" height="120" as="geometry" />
        </mxCell>
        <mxCell id="4Lav3sHIOP2TQWs1WB2x-3" value="&lt;p style=&quot;margin: 0px ; margin-top: 4px ; text-align: center&quot;&gt;«interface»&lt;br&gt;&lt;/p&gt;&lt;p style=&quot;margin: 0px ; margin-top: 4px ; text-align: center&quot;&gt;&lt;b&gt;AbstractInputDialog&lt;/b&gt;&lt;b&gt;&lt;br&gt;&lt;/b&gt;&lt;/p&gt;&lt;hr size=&quot;1&quot;&gt;&lt;p style=&quot;text-align: center ; margin: 0px 0px 0px 4px&quot;&gt;«abstract»&lt;br&gt;&lt;/p&gt;&lt;p style=&quot;margin: 0px ; margin-left: 4px&quot;&gt;&lt;span&gt;+ getData(StringDictionary&amp;amp;): void&lt;/span&gt;&lt;br&gt;&lt;/p&gt;&lt;p style=&quot;margin: 0px ; margin-left: 4px&quot;&gt;&lt;span&gt;+ type(void) : InputDialogType&lt;/span&gt;&lt;/p&gt;" style="verticalAlign=top;align=left;overflow=fill;fontSize=12;fontFamily=Helvetica;html=1;" parent="1" vertex="1">
          <mxGeometry x="760" y="-680" width="280" height="120" as="geometry" />
        </mxCell>
        <mxCell id="4Vr9gAasm6H4yabcwDiH-12" style="edgeStyle=orthogonalEdgeStyle;rounded=0;orthogonalLoop=1;jettySize=auto;html=1;entryX=1;entryY=0.5;entryDx=0;entryDy=0;" parent="1" source="4Lav3sHIOP2TQWs1WB2x-4" target="4Vr9gAasm6H4yabcwDiH-7" edge="1">
          <mxGeometry relative="1" as="geometry">
            <Array as="points">
              <mxPoint x="1620" y="20" />
            </Array>
          </mxGeometry>
        </mxCell>
        <mxCell id="4Lav3sHIOP2TQWs1WB2x-4" value="&lt;p style=&quot;margin: 0px ; margin-top: 4px ; text-align: center&quot;&gt;«interface»&lt;br&gt;&lt;/p&gt;&lt;p style=&quot;margin: 0px ; margin-top: 4px ; text-align: center&quot;&gt;&lt;b&gt;AbstractPrinterManager&lt;/b&gt;&lt;/p&gt;&lt;hr size=&quot;1&quot;&gt;&lt;p style=&quot;text-align: center ; margin: 0px 0px 0px 4px&quot;&gt;«abstract slots»&lt;br&gt;&lt;/p&gt;&lt;p style=&quot;margin: 0px ; margin-left: 4px&quot;&gt;&lt;span&gt;+ printLastTransponderSticker(void) : void&lt;/span&gt;&lt;br&gt;&lt;/p&gt;&lt;p style=&quot;margin: 0px ; margin-left: 4px&quot;&gt;&lt;span&gt;+ printCustomTransponderSticker(void) : void&lt;/span&gt;&lt;/p&gt;&lt;p style=&quot;margin: 0px ; margin-left: 4px&quot;&gt;&lt;span&gt;+ executeCommandScript(void) : void&lt;/span&gt;&lt;/p&gt;&lt;p style=&quot;margin: 0px ; margin-left: 4px&quot;&gt;&lt;span&gt;&lt;br&gt;&lt;/span&gt;&lt;/p&gt;&lt;p style=&quot;border-color: var(--border-color); text-align: center; margin: 0px 0px 0px 4px;&quot;&gt;«signals»&lt;br style=&quot;border-color: var(--border-color);&quot;&gt;&lt;/p&gt;&lt;p style=&quot;border-color: var(--border-color); margin: 0px 0px 0px 4px;&quot;&gt;+ logging(const QString&amp;amp;) : void&lt;/p&gt;" style="verticalAlign=top;align=left;overflow=fill;fontSize=12;fontFamily=Helvetica;html=1;" parent="1" vertex="1">
          <mxGeometry x="1480" y="160" width="280" height="160" as="geometry" />
        </mxCell>
        <mxCell id="4Vr9gAasm6H4yabcwDiH-13" style="edgeStyle=orthogonalEdgeStyle;rounded=0;orthogonalLoop=1;jettySize=auto;html=1;entryX=0;entryY=0.5;entryDx=0;entryDy=0;" parent="1" source="4Lav3sHIOP2TQWs1WB2x-5" target="4Vr9gAasm6H4yabcwDiH-7" edge="1">
          <mxGeometry relative="1" as="geometry">
            <Array as="points">
              <mxPoint x="1240" y="20" />
            </Array>
          </mxGeometry>
        </mxCell>
        <mxCell id="4Lav3sHIOP2TQWs1WB2x-5" value="&lt;p style=&quot;margin: 0px ; margin-top: 4px ; text-align: center&quot;&gt;«interface»&lt;br&gt;&lt;/p&gt;&lt;p style=&quot;margin: 0px ; margin-top: 4px ; text-align: center&quot;&gt;&lt;b&gt;AbstractProgrammerManager&lt;/b&gt;&lt;/p&gt;&lt;hr size=&quot;1&quot;&gt;&lt;p style=&quot;text-align: center ; margin: 0px 0px 0px 4px&quot;&gt;«abstract slots»&lt;br&gt;&lt;/p&gt;&lt;p style=&quot;margin: 0px ; margin-left: 4px&quot;&gt;&lt;span&gt;+ program(void) : void&lt;/span&gt;&lt;br&gt;&lt;/p&gt;&lt;p style=&quot;margin: 0px ; margin-left: 4px&quot;&gt;&lt;span&gt;+ read(void) : void&lt;/span&gt;&lt;/p&gt;&lt;p style=&quot;margin: 0px ; margin-left: 4px&quot;&gt;+ erase(void) : void&lt;span&gt;&lt;br&gt;&lt;/span&gt;&lt;/p&gt;&lt;p style=&quot;margin: 0px ; margin-left: 4px&quot;&gt;&lt;br&gt;&lt;/p&gt;&lt;p style=&quot;margin: 0px ; margin-left: 4px&quot;&gt;+ programUserData(void) : void&lt;/p&gt;&lt;p style=&quot;margin: 0px ; margin-left: 4px&quot;&gt;+ readUserData(void) : void&lt;br&gt;&lt;/p&gt;&lt;p style=&quot;margin: 0px ; margin-left: 4px&quot;&gt;+ getUcid(QString&amp;amp;) : void&lt;/p&gt;&lt;p style=&quot;margin: 0px ; margin-left: 4px&quot;&gt;&lt;br&gt;&lt;/p&gt;&lt;p style=&quot;margin: 0px ; margin-left: 4px&quot;&gt;+ unlock(void) : void&lt;br&gt;&lt;/p&gt;&lt;p style=&quot;margin: 0px ; margin-left: 4px&quot;&gt;+ lock(void) : void&lt;/p&gt;&lt;p style=&quot;margin: 0px ; margin-left: 4px&quot;&gt;&lt;br&gt;&lt;/p&gt;&lt;p style=&quot;border-color: var(--border-color); text-align: center; margin: 0px 0px 0px 4px;&quot;&gt;«signals»&lt;br style=&quot;border-color: var(--border-color);&quot;&gt;&lt;/p&gt;&lt;p style=&quot;border-color: var(--border-color); margin: 0px 0px 0px 4px;&quot;&gt;+ logging(const QString&amp;amp;) : void&lt;/p&gt;" style="verticalAlign=top;align=left;overflow=fill;fontSize=12;fontFamily=Helvetica;html=1;" parent="1" vertex="1">
          <mxGeometry x="1120" y="160" width="280" height="280" as="geometry" />
        </mxCell>
        <mxCell id="4Vr9gAasm6H4yabcwDiH-1" value="&lt;p style=&quot;margin: 0px ; margin-top: 4px ; text-align: center&quot;&gt;«singleton»&lt;br&gt;&lt;/p&gt;&lt;p style=&quot;margin: 0px ; margin-top: 4px ; text-align: center&quot;&gt;&lt;b&gt;MainwindowKernel&lt;/b&gt;&lt;/p&gt;&lt;hr size=&quot;1&quot;&gt;&lt;p style=&quot;text-align: center ; margin: 0px 0px 0px 4px&quot;&gt;«abstract»&lt;br&gt;&lt;/p&gt;&lt;p style=&quot;margin: 0px ; margin-left: 4px&quot;&gt;&lt;span&gt;+ create(void) : void&lt;/span&gt;&lt;br&gt;&lt;/p&gt;&lt;p style=&quot;margin: 0px ; margin-left: 4px&quot;&gt;&lt;span&gt;+ update(void) : void&lt;/span&gt;&lt;/p&gt;" style="verticalAlign=top;align=left;overflow=fill;fontSize=12;fontFamily=Helvetica;html=1;" parent="1" vertex="1">
          <mxGeometry x="440" y="-480" width="200" height="120" as="geometry" />
        </mxCell>
        <mxCell id="4Vr9gAasm6H4yabcwDiH-2" value="1" style="endArrow=open;html=1;endSize=12;startArrow=diamondThin;startSize=14;startFill=1;edgeStyle=orthogonalEdgeStyle;align=left;verticalAlign=bottom;rounded=0;entryX=0.5;entryY=1;entryDx=0;entryDy=0;exitX=0.5;exitY=0;exitDx=0;exitDy=0;" parent="1" source="4Vr9gAasm6H4yabcwDiH-1" target="4Lav3sHIOP2TQWs1WB2x-2" edge="1">
          <mxGeometry x="-0.5" relative="1" as="geometry">
            <mxPoint x="370" y="-430" as="sourcePoint" />
            <mxPoint x="370" y="-350" as="targetPoint" />
            <mxPoint as="offset" />
            <Array as="points">
              <mxPoint x="540" y="-520" />
              <mxPoint x="540" y="-520" />
            </Array>
          </mxGeometry>
        </mxCell>
        <mxCell id="4Vr9gAasm6H4yabcwDiH-11" style="edgeStyle=orthogonalEdgeStyle;rounded=0;orthogonalLoop=1;jettySize=auto;html=1;" parent="1" source="4Vr9gAasm6H4yabcwDiH-3" target="4Vr9gAasm6H4yabcwDiH-7" edge="1">
          <mxGeometry relative="1" as="geometry">
            <Array as="points">
              <mxPoint x="900" y="20" />
            </Array>
          </mxGeometry>
        </mxCell>
        <mxCell id="4Vr9gAasm6H4yabcwDiH-3" value="&lt;p style=&quot;margin: 0px ; margin-top: 4px ; text-align: center&quot;&gt;«interface»&lt;br&gt;&lt;/p&gt;&lt;p style=&quot;margin: 0px ; margin-top: 4px ; text-align: center&quot;&gt;&lt;b&gt;AbstractNetworkManager&lt;/b&gt;&lt;/p&gt;&lt;hr size=&quot;1&quot;&gt;&lt;p style=&quot;text-align: center ; margin: 0px 0px 0px 4px&quot;&gt;«abstract slots»&lt;br&gt;&lt;/p&gt;&lt;p style=&quot;margin: 0px ; margin-left: 4px&quot;&gt;&lt;span&gt;+ connectToServer(void) : void&lt;/span&gt;&lt;br&gt;&lt;/p&gt;&lt;p style=&quot;margin: 0px ; margin-left: 4px&quot;&gt;&lt;span&gt;+ disconnectFromServer(void) : void&lt;/span&gt;&lt;/p&gt;&lt;p style=&quot;margin: 0px ; margin-left: 4px&quot;&gt;&lt;span&gt;+&amp;nbsp;&lt;/span&gt;echoServer(void) : void&lt;/p&gt;&lt;p style=&quot;margin: 0px ; margin-left: 4px&quot;&gt;&lt;br&gt;&lt;/p&gt;&lt;p style=&quot;margin: 0px ; margin-left: 4px&quot;&gt;+ loadFirmware(void) : void&lt;/p&gt;&lt;p style=&quot;margin: 0px ; margin-left: 4px&quot;&gt;+ reloadFirmware(void) : void&lt;/p&gt;&lt;p style=&quot;margin: 0px ; margin-left: 4px&quot;&gt;&lt;br&gt;&lt;/p&gt;&lt;p style=&quot;margin: 0px ; margin-left: 4px&quot;&gt;+ printBoxSticker(void) : void&lt;/p&gt;&lt;p style=&quot;margin: 0px ; margin-left: 4px&quot;&gt;+ printLastBoxSticker(void) : void&lt;/p&gt;&lt;p style=&quot;margin: 0px ; margin-left: 4px&quot;&gt;+ printPalletSticker(void) : void&lt;/p&gt;&lt;p style=&quot;margin: 0px ; margin-left: 4px&quot;&gt;+ printLastPalletSticker(void) : void&lt;/p&gt;&lt;p style=&quot;margin: 0px ; margin-left: 4px&quot;&gt;&lt;br&gt;&lt;/p&gt;&lt;p style=&quot;border-color: var(--border-color); text-align: center; margin: 0px 0px 0px 4px;&quot;&gt;«signals»&lt;br style=&quot;border-color: var(--border-color);&quot;&gt;&lt;/p&gt;&lt;p style=&quot;border-color: var(--border-color); margin: 0px 0px 0px 4px;&quot;&gt;+ logging(const QString&amp;amp;) : void&lt;/p&gt;&lt;p style=&quot;border-color: var(--border-color); margin: 0px 0px 0px 4px;&quot;&gt;+ displayTransponderData(const StringDictionary&amp;amp;)&lt;/p&gt;" style="verticalAlign=top;align=left;overflow=fill;fontSize=12;fontFamily=Helvetica;html=1;" parent="1" vertex="1">
          <mxGeometry x="760" y="160" width="280" height="320" as="geometry" />
        </mxCell>
        <mxCell id="4Vr9gAasm6H4yabcwDiH-5" value="n" style="endArrow=open;html=1;endSize=12;startArrow=diamondThin;startSize=14;startFill=1;edgeStyle=orthogonalEdgeStyle;align=left;verticalAlign=bottom;rounded=0;exitX=0.5;exitY=1;exitDx=0;exitDy=0;" parent="1" source="4Vr9gAasm6H4yabcwDiH-1" target="4Vr9gAasm6H4yabcwDiH-7" edge="1">
          <mxGeometry x="-0.625" relative="1" as="geometry">
            <mxPoint x="480" y="50" as="sourcePoint" />
            <mxPoint x="540" y="-140" as="targetPoint" />
            <mxPoint as="offset" />
            <Array as="points" />
          </mxGeometry>
        </mxCell>
        <mxCell id="4Vr9gAasm6H4yabcwDiH-7" value="&lt;p style=&quot;margin: 0px ; margin-top: 4px ; text-align: center&quot;&gt;«interface»&lt;br&gt;&lt;/p&gt;&lt;p style=&quot;margin: 0px ; margin-top: 4px ; text-align: center&quot;&gt;&lt;b&gt;AbstractManager&lt;/b&gt;&lt;/p&gt;&lt;hr size=&quot;1&quot;&gt;&lt;p style=&quot;text-align: center ; margin: 0px 0px 0px 4px&quot;&gt;«signals»&lt;br&gt;&lt;/p&gt;&lt;p style=&quot;margin: 0px 0px 0px 4px&quot;&gt;+ logging(const QString&amp;amp;) : void&lt;/p&gt;&lt;p style=&quot;margin: 0px 0px 0px 4px&quot;&gt;+ finished(bool, const QString&amp;amp;) : void&lt;/p&gt;" style="verticalAlign=top;align=left;overflow=fill;fontSize=12;fontFamily=Helvetica;html=1;" parent="1" vertex="1">
          <mxGeometry x="400" y="-40" width="280" height="120" as="geometry" />
        </mxCell>
        <mxCell id="4Vr9gAasm6H4yabcwDiH-14" value="&lt;p style=&quot;margin: 0px ; margin-top: 4px ; text-align: center&quot;&gt;«singleton»&lt;br&gt;&lt;/p&gt;&lt;p style=&quot;margin: 0px ; margin-top: 4px ; text-align: center&quot;&gt;&lt;b&gt;MainwindowSubkernel&lt;/b&gt;&lt;/p&gt;&lt;hr size=&quot;1&quot;&gt;&lt;p style=&quot;text-align: center ; margin: 0px 0px 0px 4px&quot;&gt;«abstract»&lt;br&gt;&lt;/p&gt;&lt;p style=&quot;margin: 0px ; margin-left: 4px&quot;&gt;&lt;span style=&quot;background-color: initial;&quot;&gt;+ operationFinished(bool, const QString&amp;amp;&lt;/span&gt;&lt;span style=&quot;background-color: initial;&quot;&gt;) : void&lt;/span&gt;&lt;br&gt;&lt;/p&gt;&lt;p style=&quot;margin: 0px ; margin-left: 4px&quot;&gt;&lt;span style=&quot;background-color: initial;&quot;&gt;&lt;br&gt;&lt;/span&gt;&lt;/p&gt;" style="verticalAlign=top;align=left;overflow=fill;fontSize=12;fontFamily=Helvetica;html=1;" parent="1" vertex="1">
          <mxGeometry x="760" y="-480" width="280" height="120" as="geometry" />
        </mxCell>
        <mxCell id="4Vr9gAasm6H4yabcwDiH-16" value="1" style="endArrow=open;html=1;endSize=12;startArrow=diamondThin;startSize=14;startFill=1;edgeStyle=orthogonalEdgeStyle;align=left;verticalAlign=bottom;rounded=0;entryX=0.5;entryY=1;entryDx=0;entryDy=0;exitX=0.5;exitY=0;exitDx=0;exitDy=0;" parent="1" source="4Vr9gAasm6H4yabcwDiH-14" target="4Lav3sHIOP2TQWs1WB2x-3" edge="1">
          <mxGeometry x="-0.5" relative="1" as="geometry">
            <mxPoint x="1040" y="-270" as="sourcePoint" />
            <mxPoint x="1040" y="-390" as="targetPoint" />
            <mxPoint as="offset" />
            <Array as="points">
              <mxPoint x="900" y="-500" />
              <mxPoint x="900" y="-500" />
            </Array>
          </mxGeometry>
        </mxCell>
        <mxCell id="4Vr9gAasm6H4yabcwDiH-17" value="n" style="endArrow=open;html=1;endSize=12;startArrow=diamondThin;startSize=14;startFill=1;edgeStyle=orthogonalEdgeStyle;align=left;verticalAlign=bottom;rounded=0;exitX=1;exitY=0.5;exitDx=0;exitDy=0;entryX=0;entryY=0.5;entryDx=0;entryDy=0;" parent="1" source="4Vr9gAasm6H4yabcwDiH-1" target="4Vr9gAasm6H4yabcwDiH-14" edge="1">
          <mxGeometry x="-0.6667" relative="1" as="geometry">
            <mxPoint x="1280" y="-80" as="sourcePoint" />
            <mxPoint x="690" y="-110" as="targetPoint" />
            <mxPoint as="offset" />
            <Array as="points" />
          </mxGeometry>
        </mxCell>
        <mxCell id="4Vr9gAasm6H4yabcwDiH-20" value="Use" style="endArrow=open;endSize=12;dashed=1;html=1;exitX=1;exitY=1;exitDx=0;exitDy=0;entryX=0;entryY=0;entryDx=0;entryDy=0;" parent="1" source="4Lav3sHIOP2TQWs1WB2x-2" target="4Vr9gAasm6H4yabcwDiH-14" edge="1">
          <mxGeometry width="160" relative="1" as="geometry">
            <mxPoint x="640" y="-340" as="sourcePoint" />
            <mxPoint x="800" y="-340" as="targetPoint" />
          </mxGeometry>
        </mxCell>
        <mxCell id="4Vr9gAasm6H4yabcwDiH-21" value="Use" style="endArrow=open;endSize=12;dashed=1;html=1;exitX=0;exitY=1;exitDx=0;exitDy=0;entryX=1;entryY=0;entryDx=0;entryDy=0;" parent="1" source="4Vr9gAasm6H4yabcwDiH-14" target="4Vr9gAasm6H4yabcwDiH-7" edge="1">
          <mxGeometry width="160" relative="1" as="geometry">
            <mxPoint x="1160" y="-329.9999999999998" as="sourcePoint" />
            <mxPoint x="1280" y="-210.00000000000023" as="targetPoint" />
          </mxGeometry>
        </mxCell>
        <mxCell id="VW9j-UFVzLN6SaN8k9wt-8" style="edgeStyle=orthogonalEdgeStyle;rounded=0;orthogonalLoop=1;jettySize=auto;html=1;" edge="1" parent="1" source="VW9j-UFVzLN6SaN8k9wt-1" target="4Vr9gAasm6H4yabcwDiH-14">
          <mxGeometry relative="1" as="geometry">
            <Array as="points">
              <mxPoint x="900" y="-330" />
              <mxPoint x="900" y="-330" />
            </Array>
          </mxGeometry>
        </mxCell>
        <mxCell id="VW9j-UFVzLN6SaN8k9wt-1" value="&lt;p style=&quot;margin: 0px ; margin-top: 4px ; text-align: center&quot;&gt;«singleton»&lt;br&gt;&lt;/p&gt;&lt;p style=&quot;margin: 0px ; margin-top: 4px ; text-align: center&quot;&gt;&lt;b&gt;NetworkSubkernel&lt;/b&gt;&lt;/p&gt;&lt;hr size=&quot;1&quot;&gt;&lt;p style=&quot;border-color: var(--border-color); text-align: center; margin: 0px 0px 0px 4px;&quot;&gt;«signals»&lt;br style=&quot;border-color: var(--border-color);&quot;&gt;&lt;/p&gt;&lt;p style=&quot;border-color: var(--border-color); margin: 0px 0px 0px 4px;&quot;&gt;+ operationFinished(bool, const QString&amp;amp;&lt;span style=&quot;border-color: var(--border-color); background-color: initial;&quot;&gt;) : void&lt;/span&gt;&lt;/p&gt;" style="verticalAlign=top;align=left;overflow=fill;fontSize=12;fontFamily=Helvetica;html=1;" vertex="1" parent="1">
          <mxGeometry x="760" y="-280" width="280" height="120" as="geometry" />
        </mxCell>
        <mxCell id="VW9j-UFVzLN6SaN8k9wt-7" style="edgeStyle=orthogonalEdgeStyle;rounded=0;orthogonalLoop=1;jettySize=auto;html=1;" edge="1" parent="1" source="VW9j-UFVzLN6SaN8k9wt-2" target="4Vr9gAasm6H4yabcwDiH-14">
          <mxGeometry relative="1" as="geometry">
            <Array as="points">
              <mxPoint x="1620" y="-420" />
            </Array>
          </mxGeometry>
        </mxCell>
        <mxCell id="VW9j-UFVzLN6SaN8k9wt-2" value="&lt;p style=&quot;margin: 0px ; margin-top: 4px ; text-align: center&quot;&gt;«singleton»&lt;br&gt;&lt;/p&gt;&lt;p style=&quot;margin: 0px ; margin-top: 4px ; text-align: center&quot;&gt;&lt;b&gt;PrinterSubkernel&lt;/b&gt;&lt;/p&gt;&lt;hr size=&quot;1&quot;&gt;&lt;p style=&quot;border-color: var(--border-color); text-align: center; margin: 0px 0px 0px 4px;&quot;&gt;«signals»&lt;br style=&quot;border-color: var(--border-color);&quot;&gt;&lt;/p&gt;&lt;p style=&quot;border-color: var(--border-color); margin: 0px 0px 0px 4px;&quot;&gt;+ operationFinished(bool, const QString&amp;amp;&lt;span style=&quot;border-color: var(--border-color); background-color: initial;&quot;&gt;) : void&lt;/span&gt;&lt;/p&gt;" style="verticalAlign=top;align=left;overflow=fill;fontSize=12;fontFamily=Helvetica;html=1;" vertex="1" parent="1">
          <mxGeometry x="1480" y="-280" width="280" height="120" as="geometry" />
        </mxCell>
        <mxCell id="VW9j-UFVzLN6SaN8k9wt-9" style="edgeStyle=orthogonalEdgeStyle;rounded=0;orthogonalLoop=1;jettySize=auto;html=1;entryX=1;entryY=0.5;entryDx=0;entryDy=0;" edge="1" parent="1" source="VW9j-UFVzLN6SaN8k9wt-3" target="4Vr9gAasm6H4yabcwDiH-14">
          <mxGeometry relative="1" as="geometry">
            <Array as="points">
              <mxPoint x="1260" y="-420" />
            </Array>
          </mxGeometry>
        </mxCell>
        <mxCell id="VW9j-UFVzLN6SaN8k9wt-3" value="&lt;p style=&quot;margin: 0px ; margin-top: 4px ; text-align: center&quot;&gt;«singleton»&lt;br&gt;&lt;/p&gt;&lt;p style=&quot;margin: 0px ; margin-top: 4px ; text-align: center&quot;&gt;&lt;b&gt;ProgrammerSubkernel&lt;/b&gt;&lt;/p&gt;&lt;hr size=&quot;1&quot;&gt;&lt;p style=&quot;border-color: var(--border-color); text-align: center; margin: 0px 0px 0px 4px;&quot;&gt;«signals»&lt;br style=&quot;border-color: var(--border-color);&quot;&gt;&lt;/p&gt;&lt;p style=&quot;border-color: var(--border-color); margin: 0px 0px 0px 4px;&quot;&gt;+ operationFinished(bool, const QString&amp;amp;&lt;span style=&quot;border-color: var(--border-color); background-color: initial;&quot;&gt;) : void&lt;/span&gt;&lt;/p&gt;" style="verticalAlign=top;align=left;overflow=fill;fontSize=12;fontFamily=Helvetica;html=1;" vertex="1" parent="1">
          <mxGeometry x="1120" y="-280" width="280" height="120" as="geometry" />
        </mxCell>
        <mxCell id="VW9j-UFVzLN6SaN8k9wt-4" value="Use" style="endArrow=open;endSize=12;dashed=1;html=1;entryX=0.75;entryY=0;entryDx=0;entryDy=0;exitX=0.75;exitY=1;exitDx=0;exitDy=0;" edge="1" parent="1" source="VW9j-UFVzLN6SaN8k9wt-2" target="4Lav3sHIOP2TQWs1WB2x-4">
          <mxGeometry width="160" relative="1" as="geometry">
            <mxPoint x="1690" y="-100" as="sourcePoint" />
            <mxPoint x="2180" y="50" as="targetPoint" />
          </mxGeometry>
        </mxCell>
        <mxCell id="VW9j-UFVzLN6SaN8k9wt-5" value="Use" style="endArrow=open;endSize=12;dashed=1;html=1;entryX=0.75;entryY=0;entryDx=0;entryDy=0;exitX=0.75;exitY=1;exitDx=0;exitDy=0;" edge="1" parent="1" source="VW9j-UFVzLN6SaN8k9wt-1" target="4Vr9gAasm6H4yabcwDiH-3">
          <mxGeometry width="160" relative="1" as="geometry">
            <mxPoint x="970" y="-100" as="sourcePoint" />
            <mxPoint x="1940" y="-110" as="targetPoint" />
          </mxGeometry>
        </mxCell>
        <mxCell id="VW9j-UFVzLN6SaN8k9wt-6" value="Use" style="endArrow=open;endSize=12;dashed=1;html=1;entryX=0.75;entryY=0;entryDx=0;entryDy=0;exitX=0.75;exitY=1;exitDx=0;exitDy=0;" edge="1" parent="1" source="VW9j-UFVzLN6SaN8k9wt-3" target="4Lav3sHIOP2TQWs1WB2x-5">
          <mxGeometry width="160" relative="1" as="geometry">
            <mxPoint x="1330" y="-100" as="sourcePoint" />
            <mxPoint x="1980" y="10" as="targetPoint" />
          </mxGeometry>
        </mxCell>
        <mxCell id="VW9j-UFVzLN6SaN8k9wt-27" value="&lt;p style=&quot;margin: 0px ; margin-top: 4px ; text-align: center&quot;&gt;&lt;/p&gt;&lt;span&gt;&lt;div style=&quot;text-align: center&quot;&gt;&lt;b style=&quot;border-color: var(--border-color); background-color: initial;&quot;&gt;AbstractProgrammer&lt;/b&gt;&lt;br&gt;&lt;/div&gt;&lt;/span&gt;&lt;hr size=&quot;1&quot;&gt;&lt;p style=&quot;border-color: var(--border-color); text-align: center; margin: 0px 0px 0px 4px;&quot;&gt;«abstract»&lt;br style=&quot;border-color: var(--border-color);&quot;&gt;&lt;/p&gt;&lt;p style=&quot;border-color: var(--border-color); margin: 0px 0px 0px 4px;&quot;&gt;+ program(void) : ReturnStatus&lt;br style=&quot;border-color: var(--border-color);&quot;&gt;&lt;/p&gt;&lt;p style=&quot;border-color: var(--border-color); margin: 0px 0px 0px 4px;&quot;&gt;&lt;span style=&quot;border-color: var(--border-color);&quot;&gt;+ read(void) : ReturnStatus&lt;/span&gt;&lt;/p&gt;&lt;p style=&quot;border-color: var(--border-color); margin: 0px 0px 0px 4px;&quot;&gt;+ erase(void) : ReturnStatus&lt;span style=&quot;border-color: var(--border-color);&quot;&gt;&lt;br style=&quot;border-color: var(--border-color);&quot;&gt;&lt;/span&gt;&lt;/p&gt;&lt;p style=&quot;border-color: var(--border-color); margin: 0px 0px 0px 4px;&quot;&gt;&lt;br style=&quot;border-color: var(--border-color);&quot;&gt;&lt;/p&gt;&lt;p style=&quot;border-color: var(--border-color); margin: 0px 0px 0px 4px;&quot;&gt;+ programUserData(void) : ReturnStatus&lt;/p&gt;&lt;p style=&quot;border-color: var(--border-color); margin: 0px 0px 0px 4px;&quot;&gt;+ readUserData(void) : ReturnStatus&lt;br style=&quot;border-color: var(--border-color);&quot;&gt;&lt;/p&gt;&lt;p style=&quot;border-color: var(--border-color); margin: 0px 0px 0px 4px;&quot;&gt;+ getUcid(QString&amp;amp;) : ReturnStatus&lt;br&gt;&lt;/p&gt;&lt;p style=&quot;border-color: var(--border-color); margin: 0px 0px 0px 4px;&quot;&gt;&lt;br style=&quot;border-color: var(--border-color);&quot;&gt;&lt;/p&gt;&lt;p style=&quot;border-color: var(--border-color); margin: 0px 0px 0px 4px;&quot;&gt;+ unlock(void) : ReturnStatus&lt;br style=&quot;border-color: var(--border-color);&quot;&gt;&lt;/p&gt;&lt;p style=&quot;border-color: var(--border-color); margin: 0px 0px 0px 4px;&quot;&gt;+ lock(void) : ReturnStatus&lt;/p&gt;&lt;p style=&quot;border-color: var(--border-color); text-align: center; margin: 0px 0px 0px 4px;&quot;&gt;&lt;br&gt;&lt;/p&gt;&lt;p style=&quot;border-color: var(--border-color); text-align: center; margin: 0px 0px 0px 4px;&quot;&gt;«signals»&lt;br style=&quot;border-color: var(--border-color);&quot;&gt;&lt;/p&gt;&lt;p style=&quot;border-color: var(--border-color); margin: 0px 0px 0px 4px;&quot;&gt;+ logging(const QString&amp;amp;) : void&lt;/p&gt;" style="verticalAlign=top;align=left;overflow=fill;fontSize=12;fontFamily=Helvetica;html=1;" vertex="1" parent="1">
          <mxGeometry x="1160" y="480" width="240" height="240" as="geometry" />
        </mxCell>
        <mxCell id="VW9j-UFVzLN6SaN8k9wt-28" value="&lt;p style=&quot;margin: 0px ; margin-top: 4px ; text-align: center&quot;&gt;&lt;/p&gt;&lt;span&gt;&lt;div style=&quot;text-align: center&quot;&gt;&lt;b style=&quot;border-color: var(--border-color); background-color: initial;&quot;&gt;AbstractStickerPrinter&lt;/b&gt;&lt;br&gt;&lt;/div&gt;&lt;/span&gt;&lt;hr size=&quot;1&quot;&gt;&lt;p style=&quot;border-color: var(--border-color); text-align: center; margin: 0px 0px 0px 4px;&quot;&gt;«abstract»&lt;br style=&quot;border-color: var(--border-color);&quot;&gt;&lt;/p&gt;&lt;p style=&quot;border-color: var(--border-color); margin: 0px 0px 0px 4px;&quot;&gt;+ print(void) : ReturnStatus&lt;/p&gt;&lt;p style=&quot;border-color: var(--border-color); margin: 0px 0px 0px 4px;&quot;&gt;+ printLast(void) : ReturnStatus&lt;br style=&quot;border-color: var(--border-color);&quot;&gt;&lt;/p&gt;&lt;p style=&quot;border-color: var(--border-color); margin: 0px 0px 0px 4px;&quot;&gt;&lt;span style=&quot;border-color: var(--border-color);&quot;&gt;+ printCustom(void) : ReturnStatus&lt;/span&gt;&lt;/p&gt;&lt;p style=&quot;border-color: var(--border-color); margin: 0px 0px 0px 4px;&quot;&gt;&lt;span style=&quot;border-color: var(--border-color);&quot;&gt;+ executeCommandScript(void) : ReturnStatus&lt;/span&gt;&lt;/p&gt;&lt;p style=&quot;border-color: var(--border-color); margin: 0px 0px 0px 4px;&quot;&gt;&lt;span style=&quot;border-color: var(--border-color);&quot;&gt;&lt;br&gt;&lt;/span&gt;&lt;/p&gt;&lt;p style=&quot;border-color: var(--border-color); text-align: center; margin: 0px 0px 0px 4px;&quot;&gt;«signals»&lt;br style=&quot;border-color: var(--border-color);&quot;&gt;&lt;/p&gt;&lt;p style=&quot;border-color: var(--border-color); margin: 0px 0px 0px 4px;&quot;&gt;+ logging(const QString&amp;amp;) : void&lt;/p&gt;" style="verticalAlign=top;align=left;overflow=fill;fontSize=12;fontFamily=Helvetica;html=1;" vertex="1" parent="1">
          <mxGeometry x="1480" y="480" width="280" height="160" as="geometry" />
        </mxCell>
        <mxCell id="VW9j-UFVzLN6SaN8k9wt-29" value="&lt;p style=&quot;margin: 0px ; margin-top: 4px ; text-align: center&quot;&gt;&lt;/p&gt;&lt;span&gt;&lt;div style=&quot;text-align: center&quot;&gt;&lt;span&gt;«interface»&lt;/span&gt;&lt;/div&gt;&lt;/span&gt;&lt;p style=&quot;margin: 0px ; margin-top: 4px ; text-align: center&quot;&gt;&lt;b&gt;AbstractServerConnection&lt;/b&gt;&lt;b&gt;&lt;br&gt;&lt;/b&gt;&lt;/p&gt;&lt;hr size=&quot;1&quot;&gt;&lt;p style=&quot;border-color: var(--border-color); text-align: center; margin: 0px 0px 0px 4px;&quot;&gt;«abstract»&lt;br style=&quot;border-color: var(--border-color);&quot;&gt;&lt;/p&gt;&lt;p style=&quot;margin: 0px ; margin-left: 4px&quot;&gt;+ connect(void) : ReturnStatus&lt;/p&gt;&lt;p style=&quot;margin: 0px ; margin-left: 4px&quot;&gt;+ disconnect(void) : void&lt;/p&gt;&lt;p style=&quot;margin: 0px ; margin-left: 4px&quot;&gt;+ performCommand(const Qstring&amp;amp;, const StringDictionary&amp;amp;) :&amp;nbsp;ReturnStatus&lt;/p&gt;&lt;p style=&quot;margin: 0px ; margin-left: 4px&quot;&gt;+ getResponseData(StringDictionary&amp;amp;) : void&lt;/p&gt;&lt;p style=&quot;border-color: var(--border-color); text-align: center; margin: 0px 0px 0px 4px;&quot;&gt;«signals»&lt;br style=&quot;border-color: var(--border-color);&quot;&gt;&lt;/p&gt;&lt;p style=&quot;border-color: var(--border-color); margin: 0px 0px 0px 4px;&quot;&gt;+ logging(const QString&amp;amp;) : void&lt;br&gt;&lt;/p&gt;" style="verticalAlign=top;align=left;overflow=fill;fontSize=12;fontFamily=Helvetica;html=1;" vertex="1" parent="1">
          <mxGeometry x="680" y="560" width="440" height="160" as="geometry" />
        </mxCell>
        <mxCell id="VW9j-UFVzLN6SaN8k9wt-30" value="1" style="endArrow=open;html=1;endSize=12;startArrow=diamondThin;startSize=14;startFill=1;edgeStyle=orthogonalEdgeStyle;align=left;verticalAlign=bottom;rounded=0;entryX=0.5;entryY=0;entryDx=0;entryDy=0;" edge="1" parent="1" source="4Vr9gAasm6H4yabcwDiH-3" target="VW9j-UFVzLN6SaN8k9wt-29">
          <mxGeometry x="-0.25" relative="1" as="geometry">
            <mxPoint x="610" y="500" as="sourcePoint" />
            <mxPoint x="610" y="580" as="targetPoint" />
            <mxPoint as="offset" />
            <Array as="points" />
          </mxGeometry>
        </mxCell>
      </root>
    </mxGraphModel>
  </diagram>
</mxfile>
